<svg id="Calque_2" data-name="Calque 2" xmlns="http://www.w3.org/2000/svg" viewBox="0 0 500 500"><defs><style>.cls-1{fill:none;stroke:#000;stroke-linecap:round;stroke-linejoin:round;stroke-width:25px;}</style></defs><title>jupiter</title><circle class="cls-1" cx="250" cy="250" r="232.62"/><path class="cls-1" d="M437.25,112s-126.54,18-196.5-14.55-107-35.2-144.38-22.07"/><path class="cls-1" d="M31.35,170.44s14.78,18,84.56-18.19,106.47-8,136.68,11.62,158.06,45.07,213-1.37"/><path class="cls-1" d="M18.26,229.7s37.18,31.3,89.22-11.65S192,199.47,220,217.17c42.52,26.89,171.83,71.74,261,5.43"/><path class="cls-1" d="M19.51,281.46s44.29-21.06,81.64,7.35,54.46,37.08,121.55,4.34S470.47,324.4,470.47,324.4"/><path class="cls-1" d="M29.53,324.37s38.86-13.84,89.54,24.17c40.69,30.52,81.42.12,114.83-7.33s171.1-5.48,223.66,13.93"/><path class="cls-1" d="M58.21,381.66s94.71-.56,159.4,38.35,191.15,0,191.15,0"/><circle class="cls-1" cx="159.76" cy="256.72" r="32.54"/></svg>