<svg id="Calque_2" data-name="Calque 2" xmlns="http://www.w3.org/2000/svg" viewBox="0 0 500 500"><defs><style>.cls-1{fill:none;stroke:#000;stroke-linecap:round;stroke-linejoin:round;stroke-width:25px;}</style></defs><title>saturn</title><path class="cls-1" d="M419.48,179.48a183,183,0,0,1,14,70.52c0,101.35-82.17,183.52-183.52,183.52a182.88,182.88,0,0,1-69.65-13.69"/><path class="cls-1" d="M144.09,399.89A183.29,183.29,0,0,1,66.48,250C66.48,148.65,148.65,66.48,250,66.48a183.29,183.29,0,0,1,149.89,77.61"/><path class="cls-1" d="M320.52,80.53c73.79-53.12,134.26-77,155.1-56.15,32.26,32.26-42.6,159.43-167.21,284S56.64,507.88,24.38,475.62c-20.85-20.84,3-81.31,56.15-155.1"/><path class="cls-1" d="M355.91,100.12c33.4-21.76,57.9-30.84,66.36-22.39,18.12,18.13-44.31,110-139.45,205.09S95.86,440.39,77.73,422.27c-8.45-8.46.63-33,22.39-66.36"/><line class="cls-1" x1="70.24" y1="287.09" x2="287.09" y2="70.24"/><line class="cls-1" x1="239.44" y1="181.39" x2="86.81" y2="334.02"/><line class="cls-1" x1="287.15" y1="204.11" x2="375.32" y2="115.94"/><line class="cls-1" x1="174.49" y1="327.73" x2="121.42" y2="380.8"/><line class="cls-1" x1="304.67" y1="371.31" x2="432.14" y2="243.84"/></svg>