<svg id="Calque_2" data-name="Calque 2" xmlns="http://www.w3.org/2000/svg" viewBox="0 0 500 500"><defs><style>.cls-1{fill:none;stroke:#000;stroke-linecap:round;stroke-linejoin:round;stroke-width:25px;}</style></defs><title>sun</title><circle class="cls-1" cx="250.77" cy="250" r="106.29"/><line class="cls-1" x1="377.81" y1="250.93" x2="486.33" y2="250.93"/><line class="cls-1" x1="339.92" y1="339.15" x2="416.66" y2="415.89"/><line class="cls-1" x1="339.92" y1="339.15" x2="416.66" y2="415.89"/><line class="cls-1" x1="338.07" y1="162.7" x2="414.81" y2="85.96"/><line class="cls-1" x1="250.77" y1="124.11" x2="250.77" y2="15.59"/><line class="cls-1" x1="249.3" y1="484.41" x2="249.3" y2="375.89"/><line class="cls-1" x1="417.19" y1="177.7" x2="364.4" y2="200.63"/><line class="cls-1" x1="447.23" y1="327.45" x2="367.97" y2="296.21"/><line class="cls-1" x1="328.83" y1="429.68" x2="299.9" y2="363.08"/><line class="cls-1" x1="181.62" y1="425.4" x2="204.47" y2="367.44"/><line class="cls-1" x1="122.19" y1="247.01" x2="13.67" y2="247.01"/><line class="cls-1" x1="160.08" y1="158.78" x2="83.34" y2="82.04"/><line class="cls-1" x1="161.93" y1="335.24" x2="85.19" y2="411.97"/><line class="cls-1" x1="82.81" y1="320.24" x2="135.6" y2="297.31"/><line class="cls-1" x1="52.77" y1="170.48" x2="132.03" y2="201.73"/><line class="cls-1" x1="171.17" y1="68.26" x2="200.1" y2="134.85"/><line class="cls-1" x1="309.46" y1="95.17" x2="295.53" y2="130.5"/></svg>