<svg id="Calque_2" data-name="Calque 2" xmlns="http://www.w3.org/2000/svg" viewBox="0 0 500 500"><defs><style>.cls-1{fill:none;stroke:#000;stroke-linecap:round;stroke-linejoin:round;stroke-width:25px;}</style></defs><title>venus</title><path class="cls-1" d="M396.64,123.61a194.78,194.78,0,0,0-15.17-15.77c-28.39,6.24-62.37,9.88-98.91,9.88-60,0-113-9.78-145.76-24.82a195.2,195.2,0,0,0-30.05,26.94c32.69,19,87,31.38,148.42,31.38C312.47,151.22,363.5,140.43,396.64,123.61Z"/><path class="cls-1" d="M136.8,92.9c32.71,15,85.79,24.82,145.76,24.82,36.54,0,70.52-3.64,98.91-9.88A193.51,193.51,0,0,0,136.8,92.9Z"/><path class="cls-1" d="M70.65,323.09A193.69,193.69,0,0,0,250,443.67c84.94,0,157.07-54.72,183.17-130.82-44.61,26.49-103.32,44.43-168.45,48.36C189.54,365.75,120.6,350.77,70.65,323.09Z"/><path class="cls-1" d="M215.78,284.41c-62.43-14-116.62-39.8-155.93-71.25a194,194,0,0,0,10.8,109.93c49.95,27.68,118.89,42.66,194.07,38.11,65.12-3.94,123.83-21.86,168.45-48.35A192.21,192.21,0,0,0,443,265.53C388.9,295.39,304.77,304.34,215.78,284.41Z"/><path class="cls-1" d="M442.63,230.28c-54,30.39-138.74,39.61-228.37,19.55-57.76-12.93-108.46-36-146.86-64.28a191.52,191.52,0,0,0-7.55,27.61c39.31,31.45,93.5,57.28,155.93,71.26,89,19.92,173.12,11,227.21-18.89.41-5.12.68-10.29.68-15.53C443.66,243.34,443.29,236.77,442.63,230.28Z"/><path class="cls-1" d="M442.63,230.28a192.79,192.79,0,0,0-46-106.67c-33.14,16.81-84.17,27.61-141.47,27.61-61.46,0-115.74-12.42-148.42-31.38a193.73,193.73,0,0,0-39.35,65.7c38.4,28.28,89.1,51.35,146.86,64.28C303.89,269.89,388.59,260.67,442.63,230.28Z"/></svg>